<svg preserveAspectRatio="none" width="100%" height="100%" overflow="visible" style="display: block;" viewBox="0 0 16 20" fill="none" xmlns="http://www.w3.org/2000/svg">
<g id="Container">
<path id="Icon" d="M6.75 17C7.38333 17 7.91667 16.7833 8.35 16.35C8.78333 15.9167 9 15.3833 9 14.75V11H12V9H8V12.875C7.81667 12.7417 7.62083 12.6458 7.4125 12.5875C7.20417 12.5292 6.98333 12.5 6.75 12.5C6.11667 12.5 5.58333 12.7167 5.15 13.15C4.71667 13.5833 4.5 14.1167 4.5 14.75C4.5 15.3833 4.71667 15.9167 5.15 16.35C5.58333 16.7833 6.11667 17 6.75 17V17M2 20C1.45 20 0.979167 19.8042 0.5875 19.4125C0.195833 19.0208 0 18.55 0 18V2C0 1.45 0.195833 0.979167 0.5875 0.5875C0.979167 0.195833 1.45 0 2 0H10L16 6V18C16 18.55 15.8042 19.0208 15.4125 19.4125C15.0208 19.8042 14.55 20 14 20H2V20M9 7V2H2V2V2V18V18V18H14V18V18V7H9V7M2 2V2V7V7V2V7V7V18V18V18V18V18V18V2V2V2V2" fill="#ADAAAA"/>
</g>
</svg>
