<svg viewBox="0 0 20 20" fill="none" xmlns="http://www.w3.org/2000/svg">
	<g clip-path="url(#clip0)">
		<path d="M16.9308 3.64167C15.6342 3.04653 14.2658 2.62215 12.86 2.37917C12.8337 2.37404 12.8071 2.3865 12.7942 2.41C12.6192 2.7225 12.4242 3.13 12.2875 3.45167C10.772 3.22149 9.23048 3.22149 7.715 3.45167C7.5629 3.09525 7.39125 2.7475 7.20083 2.41C7.18739 2.38708 7.16121 2.37482 7.135 2.37917C5.72904 2.62165 4.36061 3.04605 3.06417 3.64167C3.05319 3.64627 3.04389 3.65412 3.0375 3.66417C0.444167 7.53833 -0.266667 11.3167 0.0825 15.0475C0.0842142 15.0662 0.0935578 15.0834 0.108333 15.095C1.618 16.2135 3.30676 17.0673 5.1025 17.62C5.12841 17.6275 5.15627 17.6182 5.1725 17.5967C5.5575 17.0717 5.89083 16.5158 6.17167 15.9383C6.17966 15.9223 6.18051 15.9037 6.174 15.887C6.16749 15.8703 6.15423 15.8572 6.1375 15.8508C5.59872 15.6452 5.07709 15.3972 4.5775 15.1092C4.5589 15.0984 4.54692 15.0791 4.54558 15.0576C4.54424 15.0362 4.55372 15.0155 4.57083 15.0025C4.67583 14.9242 4.78083 14.8425 4.88083 14.7608C4.89893 14.7462 4.92375 14.7429 4.945 14.7525C8.2175 16.2467 11.7617 16.2467 14.9958 14.7525C15.0171 14.7429 15.0419 14.7462 15.06 14.7608C15.16 14.8425 15.265 14.9242 15.3708 15.0025C15.3877 15.0153 15.3973 15.0356 15.3963 15.0567C15.3953 15.0779 15.3839 15.0972 15.3658 15.1083C14.8674 15.3991 14.3452 15.6472 13.805 15.85C13.788 15.8563 13.7746 15.8696 13.7681 15.8865C13.7615 15.9034 13.7625 15.9222 13.7708 15.9383C14.0542 16.5158 14.3875 17.0717 14.7708 17.5967C14.7868 17.6186 14.8149 17.628 14.8408 17.62C16.6396 17.069 18.3311 16.2151 19.8425 15.095C19.8574 15.0845 19.8671 15.0681 19.8692 15.05C20.2858 10.7358 19.1708 6.98833 16.9117 3.66667C16.9064 3.65546 16.8972 3.64658 16.8858 3.64167H16.9308M6.68333 12.775C5.6975 12.775 4.88583 11.8708 4.88583 10.7592C4.88583 9.64833 5.68167 8.74333 6.68333 8.74333C7.69167 8.74333 8.49667 9.64833 8.48083 10.7592C8.48083 11.8708 7.69167 12.775 6.68333 12.775V12.775M13.3292 12.775C12.3433 12.775 11.5317 11.8708 11.5317 10.7592C11.5317 9.64833 12.3275 8.74333 13.3292 8.74333C14.3375 8.74333 15.1425 9.64833 15.1267 10.7592C15.1267 11.8708 14.3383 12.775 13.3292 12.775V12.775" fill="#FFFFFF"/>
	</g>
	<defs>
		<clipPath id="clip0">
			<rect width="20" height="20" fill="#FFFFFF"/>
		</clipPath>
	</defs>
</svg>
