<svg preserveAspectRatio="none" width="100%" height="100%" overflow="visible" style="display: block;" viewBox="0 0 48 48" fill="none" xmlns="http://www.w3.org/2000/svg">
<g id="Overlay">
<rect width="48" height="48" rx="16" fill="#FFD262" fill-opacity="0.1"/>
<path id="Vector" d="M23.4 13.875L19.97 14.795L15.46 31.655C15.43 31.805 15.4 31.965 15.4 32.125C15.4 33.235 16.29 34.125 17.4 34.125H29.4C30.51 34.125 31.4 33.235 31.4 32.125C31.4 31.965 31.37 31.805 31.34 31.655L29.98 26.545L28.4 28.125L28.6 29.125H24.81L27.65 26.285L26.24 24.875L21.99 29.125H18.2L21.69 16.125H25.11L26.57 21.555L28.2 19.915L26.83 14.795L23.4 13.875ZM22.65 17.125V26.875L24.15 25.375V17.125H22.65ZM31.19 19.925L28.36 22.755L27.65 22.045L26.24 23.465L29.06 26.285L30.48 24.875L29.77 24.165L32.6 21.335L31.19 19.925Z" fill="#FFD262"/>
</g>
</svg>
