<svg preserveAspectRatio="none" width="100%" height="100%" overflow="visible" style="display: block;" viewBox="0 0 54 52.5" fill="none" xmlns="http://www.w3.org/2000/svg">
<g id="Container">
<path id="Icon" d="M33 52.5V46.35C37.5 45.05 41.125 42.55 43.875 38.85C46.625 35.15 48 30.95 48 26.25C48 21.55 46.625 17.35 43.875 13.65C41.125 9.95 37.5 7.45 33 6.15V0C39.2 1.4 44.25 4.5375 48.15 9.4125C52.05 14.2875 54 19.9 54 26.25C54 32.6 52.05 38.2125 48.15 43.0875C44.25 47.9625 39.2 51.1 33 52.5V52.5M0 35.325V17.325H12L27 2.325V50.325L12 35.325H0V35.325M33 38.325V14.175C35.35 15.275 37.1875 16.925 38.5125 19.125C39.8375 21.325 40.5 23.725 40.5 26.325C40.5 28.875 39.8375 31.2375 38.5125 33.4125C37.1875 35.5875 35.35 37.225 33 38.325V38.325" fill="#FF923E"/>
</g>
</svg>
