<svg preserveAspectRatio="none" width="100%" height="100%" overflow="visible" style="display: block;" viewBox="0 0 110 110" fill="none" xmlns="http://www.w3.org/2000/svg">
<g id="Container">
<path id="Icon" d="M90 40L83.75 26.25L70 20L83.75 13.75L90 0L96.25 13.75L110 20L96.25 26.25L90 40V40M90 110L83.75 96.25L70 90L83.75 83.75L90 70L96.25 83.75L110 90L96.25 96.25L90 110V110M40 95L27.5 67.5L0 55L27.5 42.5L40 15L52.5 42.5L80 55L52.5 67.5L40 95V95M40 70.75L45 60L55.75 55L45 50L40 39.25L35 50L24.25 55L35 60L40 70.75V70.75M40 55V55V55V55V55V55V55V55V55V55" fill="#F97316" fill-opacity="0.1"/>
</g>
</svg>
