<svg preserveAspectRatio="none" width="100%" height="100%" overflow="visible" style="display: block;" viewBox="0 0 48 48" fill="none" xmlns="http://www.w3.org/2000/svg">
<g id="Overlay">
<rect width="48" height="48" rx="16" fill="#FFD262" fill-opacity="0.1"/>
<path id="Vector" d="M23.9997 14C22.9817 13.9999 21.9759 14.2218 21.0525 14.6503C20.1291 15.0788 19.3102 15.7035 18.653 16.481C17.9958 17.2584 17.5161 18.1698 17.2473 19.1517C16.9785 20.1335 16.9271 21.1622 17.0967 22.166C17.1537 22.508 17.2837 22.843 17.4797 23.141C17.7957 23.778 18.2617 24.348 18.8627 24.885L19.0227 25.025C19.4727 25.418 19.9997 25.878 19.9997 26.5V26.553C20.3797 26.212 20.7767 25.906 21.1467 25.633C21.3014 25.5177 21.4484 25.4097 21.5877 25.309C21.8777 25.099 22.1347 24.911 22.3747 24.719L22.5847 24.551C24.0447 23.385 24.7667 22.809 25.0297 21.757C25.2107 21.033 25.0317 20.624 24.8397 20.397C24.735 20.276 24.6062 20.1783 24.4616 20.1099C24.3169 20.0415 24.1596 20.0041 23.9997 20C23.7779 19.9998 23.5623 20.0734 23.3869 20.2092C23.2115 20.345 23.0862 20.5352 23.0307 20.75C23.0002 20.8796 22.9442 21.0019 22.8658 21.1095C22.7875 21.2172 22.6884 21.3081 22.5744 21.377C22.4605 21.4459 22.3339 21.4913 22.2021 21.5106C22.0704 21.5299 21.9361 21.5227 21.8072 21.4894C21.6783 21.4561 21.5573 21.3973 21.4513 21.3167C21.3454 21.236 21.2567 21.135 21.1903 21.0195C21.1239 20.9041 21.0813 20.7765 21.0649 20.6444C21.0485 20.5123 21.0586 20.3782 21.0947 20.25C21.261 19.606 21.6366 19.0355 22.1624 18.6282C22.6883 18.2209 23.3346 17.9999 23.9997 18C24.8287 18 25.7387 18.366 26.3637 19.103C27.0207 19.876 27.2887 20.967 26.9697 22.243C26.5357 23.979 25.2687 24.98 23.9867 25.993L23.6247 26.281C23.3477 26.502 23.0287 26.734 22.7197 26.959L22.3367 27.239C21.9017 27.562 21.4907 27.884 21.1327 28.231C20.4767 28.867 20.0667 29.519 20.0067 30.301C20.1227 32.622 21.5607 34 22.9997 34C25.1557 34 26.8327 32.5 26.9977 30.068C27.0827 28.805 27.5277 27.928 28.0987 27.129C28.3427 26.788 28.6087 26.462 28.8727 26.136C29.2977 25.612 29.7227 25.088 30.0627 24.501C30.6774 23.4368 31.001 22.2295 31.0011 21.0005C31.0012 19.7715 30.6777 18.5642 30.0632 17.4999C29.4487 16.4356 28.5648 15.5518 27.5004 14.9374C26.436 14.3231 25.2287 13.9998 23.9997 14Z" fill="#FF923E"/>
</g>
</svg>
