<svg width="23" height="23" viewBox="0 0 23 23" fill="none" xmlns="http://www.w3.org/2000/svg">
<path d="M21 4.525C21 3.675 20.7083 2.95833 20.125 2.375C19.5417 1.79167 18.825 1.5 17.975 1.5V0C19.225 0 20.2917 0.441667 21.175 1.325C22.0583 2.20833 22.5 3.275 22.5 4.525H21ZM5 22.5C3.61667 22.5 2.4375 22.0125 1.4625 21.0375C0.4875 20.0625 0 18.8833 0 17.5H1.5C1.5 18.4667 1.84167 19.2917 2.525 19.975C3.20833 20.6583 4.03333 21 5 21V22.5ZM9.05 22.5C8.55 22.5 8.08333 22.3875 7.65 22.1625C7.21667 21.9375 6.85833 21.6167 6.575 21.2L0.2 11.875L0.8 11.3C1.11667 10.9833 1.49167 10.8 1.925 10.75C2.35833 10.7 2.75 10.8 3.1 11.05L6 13.075V3.5C6 3.21667 6.09583 2.97917 6.2875 2.7875C6.47917 2.59583 6.71667 2.5 7 2.5C7.28333 2.5 7.52083 2.59583 7.7125 2.7875C7.90417 2.97917 8 3.21667 8 3.5V16.925L4.3 14.325L8.225 20.05C8.30833 20.1833 8.425 20.2917 8.575 20.375C8.725 20.4583 8.88333 20.5 9.05 20.5H12.525H16C16.55 20.5 17.0208 20.3042 17.4125 19.9125C17.8042 19.5208 18 19.05 18 18.5V4.5C18 4.21667 18.0958 3.97917 18.2875 3.7875C18.4792 3.59583 18.7167 3.5 19 3.5C19.2833 3.5 19.5208 3.59583 19.7125 3.7875C19.9042 3.97917 20 4.21667 20 4.5V18.5C20 19.6 19.6083 20.5417 18.825 21.325C18.0417 22.1083 17.1 22.5 16 22.5H9.05ZM10 11.5V1.5C10 1.21667 10.0958 0.979167 10.2875 0.7875C10.4792 0.595833 10.7167 0.5 11 0.5C11.2833 0.5 11.5208 0.595833 11.7125 0.7875C11.9042 0.979167 12 1.21667 12 1.5V11.5H10ZM14 11.5V2.5C14 2.21667 14.0958 1.97917 14.2875 1.7875C14.4792 1.59583 14.7167 1.5 15 1.5C15.2833 1.5 15.5208 1.59583 15.7125 1.7875C15.9042 1.97917 16 2.21667 16 2.5V11.5H14Z" fill="#7FE6DB"/>
</svg>