<svg preserveAspectRatio="none" width="100%" height="100%" overflow="visible" style="display: block;" viewBox="0 0 263.229 105" fill="none" xmlns="http://www.w3.org/2000/svg">
<g id="Container">
<g id="Icon" filter="url(#filter0_d_880_1991)">
<path d="M122.333 86C117.292 86 112.976 84.3681 109.385 81.1042C105.795 77.8403 104 73.9167 104 69.3333C104 64.75 105.795 60.8264 109.385 57.5625C112.976 54.2986 117.292 52.6667 122.333 52.6667C124.09 52.6667 125.714 52.8576 127.203 53.2396C128.693 53.6215 130.125 54.1944 131.5 54.9583V11H159V27.6667H140.667V69.3333C140.667 73.9167 138.872 77.8403 135.281 81.1042C131.691 84.3681 127.375 86 122.333 86Z" fill="#F97316"/>
</g>
</g>
<defs>
<filter id="filter0_d_880_1991" x="89" y="0" width="85" height="105" filterUnits="userSpaceOnUse" color-interpolation-filters="sRGB">
<feFlood flood-opacity="0" result="BackgroundImageFix"/>
<feColorMatrix in="SourceAlpha" type="matrix" values="0 0 0 0 0 0 0 0 0 0 0 0 0 0 0 0 0 0 127 0" result="hardAlpha"/>
<feOffset dy="4"/>
<feGaussianBlur stdDeviation="7.5"/>
<feComposite in2="hardAlpha" operator="out"/>
<feColorMatrix type="matrix" values="0 0 0 0 1 0 0 0 0 0.717647 0 0 0 0 0.490196 0 0 0 0.15 0"/>
<feBlend mode="normal" in2="BackgroundImageFix" result="effect1_dropShadow_880_1991"/>
<feBlend mode="normal" in="SourceGraphic" in2="effect1_dropShadow_880_1991" result="shape"/>
</filter>
</defs>
</svg>
