<svg preserveAspectRatio="none" width="100%" height="100%" overflow="visible" style="display: block;" viewBox="0 0 78 40" fill="none" xmlns="http://www.w3.org/2000/svg">
<g id="Home">
<path id="Vector" d="M33 26.5H36V21.5C36 21.2167 36.096 20.9793 36.288 20.788C36.48 20.5967 36.7173 20.5007 37 20.5H41C41.2833 20.5 41.521 20.596 41.713 20.788C41.905 20.98 42.0007 21.2173 42 21.5V26.5H45V17.5L39 13L33 17.5V26.5ZM31 26.5V17.5C31 17.1833 31.071 16.8833 31.213 16.6C31.355 16.3167 31.5507 16.0833 31.8 15.9L37.8 11.4C38.15 11.1333 38.55 11 39 11C39.45 11 39.85 11.1333 40.2 11.4L46.2 15.9C46.45 16.0833 46.646 16.3167 46.788 16.6C46.93 16.8833 47.0007 17.1833 47 17.5V26.5C47 27.05 46.804 27.521 46.412 27.913C46.02 28.305 45.5493 28.5007 45 28.5H41C40.7167 28.5 40.4793 28.404 40.288 28.212C40.0967 28.02 40.0007 27.7827 40 27.5V22.5H38V27.5C38 27.7833 37.904 28.021 37.712 28.213C37.52 28.405 37.2827 28.5007 37 28.5H33C32.45 28.5 31.9793 28.3043 31.588 27.913C31.1967 27.5217 31.0007 27.0507 31 26.5Z" fill="white"/>
</g>
</svg>
