<svg preserveAspectRatio="none" width="100%" height="100%" overflow="visible" style="display: block;" viewBox="0 0 78 40" fill="none" xmlns="http://www.w3.org/2000/svg">
<g id="Recent">
<path id="Vector" d="M41 15.75H39.5V20.75L43.78 23.29L44.5 22.08L41 20V15.75ZM40.5 10.75C38.1131 10.75 35.8239 11.6982 34.136 13.386C32.4482 15.0738 31.5 17.363 31.5 19.75H28.5L32.46 23.78L36.5 19.75H33.5C33.5 17.8935 34.2375 16.113 35.5503 14.8002C36.863 13.4875 38.6435 12.75 40.5 12.75C42.3565 12.75 44.137 13.4875 45.4497 14.8002C46.7625 16.113 47.5 17.8935 47.5 19.75C47.5 21.6065 46.7625 23.387 45.4497 24.6997C44.137 26.0125 42.3565 26.75 40.5 26.75C38.57 26.75 36.82 25.96 35.56 24.69L34.14 26.11C34.9716 26.9504 35.9623 27.6167 37.0543 28.07C38.1463 28.5233 39.3177 28.7544 40.5 28.75C42.887 28.75 45.1761 27.8018 46.864 26.1139C48.5518 24.4261 49.5 22.1369 49.5 19.75C49.5 17.363 48.5518 15.0738 46.864 13.386C45.1761 11.6982 42.887 10.75 40.5 10.75Z" fill="black"/>
</g>
</svg>
