<svg preserveAspectRatio="none" width="100%" height="100%" overflow="visible" style="display: block;" viewBox="0 0 33 24" fill="none" xmlns="http://www.w3.org/2000/svg">
<g id="Container">
<path id="Icon" d="M15 24H8.25C5.975 24 4.03125 23.2125 2.41875 21.6375C0.80625 20.0625 0 18.1375 0 15.8625C0 13.9125 0.5875 12.175 1.7625 10.65C2.9375 9.125 4.475 8.15 6.375 7.725C7 5.425 8.25 3.5625 10.125 2.1375C12 0.7125 14.125 0 16.5 0C19.425 0 21.9063 1.01875 23.9438 3.05625C25.9813 5.09375 27 7.575 27 10.5V10.5V10.5C28.725 10.7 30.1563 11.4437 31.2938 12.7312C32.4313 14.0187 33 15.525 33 17.25C33 19.125 32.3438 20.7188 31.0312 22.0312C29.7188 23.3438 28.125 24 26.25 24H18V13.275L20.4 15.6L22.5 13.5L16.5 7.5L10.5 13.5L12.6 15.6L15 13.275V24V24" fill="#FF9F4A"/>
</g>
</svg>
