<svg preserveAspectRatio="none" width="100%" height="100%" overflow="visible" style="display: block;" viewBox="0 0 28 21" fill="none" xmlns="http://www.w3.org/2000/svg">
<g id="Container">
<path id="Vector" d="M4.37741 21C3.21745 21 2.10298 20.5399 1.28068 19.7194C0.874136 19.3128 0.551763 18.83 0.332009 18.2987C0.112256 17.7674 -0.000564821 17.1979 2.12619e-06 16.623V4.37704C2.12619e-06 3.21718 0.460137 2.1028 1.28068 1.28057C1.68733 0.874062 2.17016 0.551717 2.70153 0.331982C3.2329 0.112247 3.80239 -0.000564774 4.37741 2.12601e-06H23.6226C24.7826 2.12601e-06 25.897 0.460098 26.7193 1.28057C27.5399 2.10105 28 3.20493 28 4.37704V16.623C28 17.7828 27.5399 18.8972 26.7193 19.7194C25.8988 20.5399 24.7948 21 23.6226 21H4.37741ZM7.00175 1.75642H4.37741C3.68199 1.75688 3.0152 2.03331 2.52346 2.525C2.03173 3.01669 1.75528 3.68344 1.75481 4.37879V16.6247C1.75528 17.3201 2.03173 17.9868 2.52346 18.4785C3.0152 18.9702 3.68199 19.2466 4.37741 19.2471H8.75131V13.9988C8.52136 13.9995 8.29355 13.9547 8.08097 13.8671C7.86839 13.7794 7.67524 13.6506 7.51264 13.488C7.35004 13.3254 7.22119 13.1323 7.13352 12.9197C7.04584 12.7071 7.00106 12.4793 7.00175 12.2494V1.75292V1.75642ZM15.7496 1.75642H12.2504V12.2529C12.2511 12.4828 12.2064 12.7106 12.1187 12.9232C12.031 13.1358 11.9021 13.3289 11.7395 13.4915C11.5769 13.6541 11.3838 13.7829 11.1712 13.8706C10.9586 13.9582 10.7308 14.003 10.5009 14.0023V19.2506H17.4991V14.0023C17.2692 14.003 17.0414 13.9582 16.8288 13.8706C16.6162 13.7829 16.4231 13.6541 16.2605 13.4915C16.0979 13.3289 15.969 13.1358 15.8813 12.9232C15.7936 12.7106 15.7489 12.4828 15.7496 12.2529V1.75642ZM23.6226 1.75642H20.9982V12.2529C20.9989 12.4828 20.9542 12.7106 20.8665 12.9232C20.7788 13.1358 20.65 13.3289 20.4874 13.4915C20.3248 13.6541 20.1316 13.7829 19.919 13.8706C19.7065 13.9582 19.4786 14.003 19.2487 14.0023V19.2506H23.6226C24.318 19.2501 24.9848 18.9737 25.4765 18.482C25.9683 17.9903 26.2447 17.3236 26.2452 16.6282V4.38229C26.2447 3.68694 25.9683 3.02019 25.4765 2.5285C24.9848 2.03681 24.318 1.76038 23.6226 1.75992V1.75642Z" fill="#FF923E"/>
</g>
</svg>
