<svg preserveAspectRatio="none" width="100%" height="100%" overflow="visible" style="display: block;" viewBox="0 0 69.593 69.593" fill="none" xmlns="http://www.w3.org/2000/svg">
<g id="Overlay">
<rect width="69.593" height="69.593" rx="10" fill="#4C331A"/>
<path id="Vector" d="M33.8023 18.0196L28.1189 19.544L20.6459 47.4807C20.5962 47.7292 20.5465 47.9943 20.5465 48.2594C20.5465 50.0987 22.0212 51.5734 23.8605 51.5734H43.7442C45.5834 51.5734 47.0581 50.0987 47.0581 48.2594C47.0581 47.9943 47.0084 47.7292 46.9587 47.4807L44.7052 39.0135L42.0872 41.6315L42.4186 43.2885H36.1387L40.8445 38.5827L38.5081 36.2464L31.466 43.2885H25.186L30.9689 21.7478H36.6358L39.0549 30.7452L41.7558 28.0278L39.4858 19.544L33.8023 18.0196ZM32.5596 23.4048V39.5603L35.0451 37.0749V23.4048H32.5596ZM46.7102 28.0443L42.0209 32.7336L40.8445 31.5571L38.5081 33.91L43.1808 38.5827L45.5337 36.2464L44.3573 35.0699L49.0465 30.3807L46.7102 28.0443Z" fill="#FF923E"/>
</g>
</svg>
