<svg width="88" height="60" viewBox="0 0 88 60" fill="none" xmlns="http://www.w3.org/2000/svg">
<path opacity="0.1" d="M44 48C49 48 53.25 46.25 56.75 42.75C60.25 39.25 62 35 62 30C62 25 60.25 20.75 56.75 17.25C53.25 13.75 49 12 44 12C39 12 34.75 13.75 31.25 17.25C27.75 20.75 26 25 26 30C26 35 27.75 39.25 31.25 42.75C34.75 46.25 39 48 44 48ZM44 40.8C41 40.8 38.45 39.75 36.35 37.65C34.25 35.55 33.2 33 33.2 30C33.2 27 34.25 24.45 36.35 22.35C38.45 20.25 41 19.2 44 19.2C47 19.2 49.55 20.25 51.65 22.35C53.75 24.45 54.8 27 54.8 30C54.8 33 53.75 35.55 51.65 37.65C49.55 39.75 47 40.8 44 40.8ZM44 60C34.2667 60 25.4 57.2833 17.4 51.85C9.4 46.4167 3.6 39.1333 0 30C3.6 20.8667 9.4 13.5833 17.4 8.15C25.4 2.71667 34.2667 0 44 0C53.7333 0 62.6 2.71667 70.6 8.15C78.6 13.5833 84.4 20.8667 88 30C84.4 39.1333 78.6 46.4167 70.6 51.85C62.6 57.2833 53.7333 60 44 60ZM44 52C51.5333 52 58.45 50.0167 64.75 46.05C71.05 42.0833 75.8667 36.7333 79.2 30C75.8667 23.2667 71.05 17.9167 64.75 13.95C58.45 9.98333 51.5333 8 44 8C36.4667 8 29.55 9.98333 23.25 13.95C16.95 17.9167 12.1333 23.2667 8.8 30C12.1333 36.7333 16.95 42.0833 23.25 46.05C29.55 50.0167 36.4667 52 44 52Z" fill="#ECEDF6"/>
</svg>